<svg width="82" height="82" viewBox="0 0 82 82" fill="none" xmlns="http://www.w3.org/2000/svg">
<mask id="mask0" mask-type="alpha" maskUnits="userSpaceOnUse" x="0" y="0" width="82" height="82">
<rect width="82" height="82" rx="20" fill="#DADADA"/>
</mask>
<g mask="url(#mask0)">
<path d="M74.1608 62.4822H69.4822V48.4465H74.1608C74.7812 48.4465 75.3762 48.6929 75.8149 49.1316C76.2536 49.5703 76.5 50.1653 76.5 50.7858V60.1429C76.5 60.7633 76.2536 61.3583 75.8149 61.797C75.3762 62.2357 74.7812 62.4822 74.1608 62.4822Z" fill="#8E6FA9"/>
<path d="M69.4822 58.9487V62.4822H74.1608C74.7812 62.4822 75.3762 62.2358 75.8149 61.7971C76.2536 61.3584 76.5 60.7633 76.5 60.1429V51.3706C76.4998 53.2854 75.7768 55.1296 74.4758 56.5346C73.1747 57.9395 71.3914 58.8017 69.4822 58.9487Z" fill="#816B94"/>
<path d="M62.4643 78.8572H19.1875C17.016 78.8572 14.9335 77.9946 13.3981 76.4591C11.8626 74.9237 11 72.8411 11 70.6697V18.6692C11 15.3991 12.299 12.263 14.6114 9.95065C16.9237 7.63834 20.0598 6.33929 23.3299 6.33929H65.9733C67.5243 6.33929 69.0118 6.95544 70.1086 8.0522C71.2053 9.14895 71.8215 10.6365 71.8215 12.1875V69.5C71.8215 71.9817 70.8356 74.3617 69.0808 76.1165C67.326 77.8713 64.946 78.8572 62.4643 78.8572Z" fill="#EBE9E9"/>
<path d="M69.4822 41.4286H65.9733V27.3929H69.4822C70.1026 27.3929 70.6976 27.6393 71.1363 28.078C71.575 28.5167 71.8215 29.1118 71.8215 29.7322V39.0893C71.8215 39.7097 71.575 40.3047 71.1363 40.7434C70.6976 41.1821 70.1026 41.4286 69.4822 41.4286Z" fill="#FFD740"/>
<path d="M66.5581 37.9197C66.3611 37.9197 66.1666 37.9097 65.9733 37.8951V41.4286H69.4822C70.1026 41.4286 70.6976 41.1821 71.1363 40.7434C71.575 40.3047 71.8215 39.7097 71.8215 39.0893V34.3669C70.4752 36.5015 69.2679 37.9197 66.5581 37.9197Z" fill="#FFC400"/>
<path d="M64.8036 22.7143H60.125V8.67859H64.8036C65.424 8.67859 66.019 8.92505 66.4577 9.36375C66.8964 9.80245 67.1429 10.3975 67.1429 11.0179V20.375C67.1429 20.9954 66.8964 21.5904 66.4577 22.0291C66.019 22.4678 65.424 22.7143 64.8036 22.7143Z" fill="#35B788"/>
<path d="M60.125 18.0112V22.7143H64.8036C65.424 22.7143 66.019 22.4679 66.4577 22.0292C66.8964 21.5905 67.1429 20.9955 67.1429 20.3751V11.0179C67.1429 10.952 67.1383 10.8872 67.1331 10.8227C67.0379 12.6679 66.274 14.4152 64.9843 15.7382C63.6945 17.0611 61.9671 17.8692 60.125 18.0112Z" fill="#20A978"/>
<path d="M63.6339 73.74H19.1875C18.8773 73.74 18.5798 73.6168 18.3604 73.3974C18.1411 73.1781 18.0178 72.8805 18.0178 72.5703C18.0178 72.2601 18.1411 71.9626 18.3604 71.7433C18.5798 71.5239 18.8773 71.4007 19.1875 71.4007H63.6339C63.9441 71.4007 64.2416 71.5239 64.461 71.7433C64.6803 71.9626 64.8036 72.2601 64.8036 72.5703C64.8036 72.8805 64.6803 73.1781 64.461 73.3974C64.2416 73.6168 63.9441 73.74 63.6339 73.74Z" fill="#D8D5D5"/>
<path d="M63.6339 69.0614H19.1875C18.8773 69.0614 18.5798 68.9382 18.3604 68.7189C18.1411 68.4995 18.0178 68.202 18.0178 67.8918C18.0178 67.5816 18.1411 67.2841 18.3604 67.0647C18.5798 66.8454 18.8773 66.7222 19.1875 66.7222H63.6339C63.944 66.7218 64.2413 66.5985 64.4606 66.3792C64.6799 66.1599 64.8032 65.8626 64.8036 65.5525V25.7846C64.8036 25.4744 64.9268 25.1769 65.1461 24.9576C65.3655 24.7382 65.663 24.615 65.9732 24.615C66.2834 24.615 66.5809 24.7382 66.8003 24.9576C67.0196 25.1769 67.1429 25.4744 67.1429 25.7846V65.5525C67.1418 66.4828 66.7717 67.3747 66.1139 68.0325C65.4561 68.6903 64.5642 69.0604 63.6339 69.0614Z" fill="#D8D5D5"/>
<path d="M19.1875 62.4822H57.7857C59.0266 62.4822 60.2166 61.9893 61.094 61.1119C61.9714 60.2344 62.4643 59.0444 62.4643 57.8036V8.67857C62.4643 7.43774 61.9714 6.24773 61.094 5.37032C60.2166 4.49292 59.0266 4 57.7857 4H19.1875C17.016 4 14.9335 4.86261 13.3981 6.39806C11.8626 7.93352 11 10.016 11 12.1875V70.6697C11.0024 68.499 11.8658 66.4179 13.4008 64.8829C14.9357 63.348 17.0168 62.4846 19.1875 62.4822Z" fill="#F9942F"/>
<path d="M23.8661 49.6645C19.4894 49.6687 15.1421 48.9494 11 47.5358V70.7181C11.0024 68.5474 11.8658 66.4663 13.4008 64.9314C14.9357 63.3964 17.0168 62.533 19.1875 62.5306H57.7857C59.0266 62.5306 60.2166 62.0377 61.094 61.1603C61.9714 60.2829 62.4643 59.0929 62.4643 57.852V19.4978C58.1689 36.8221 42.5185 49.6645 23.8661 49.6645Z" fill="#FC8038"/>
</g>
</svg>
